<?xml version="1.0" encoding="UTF-8"?>
<svg xmlns="http://www.w3.org/2000/svg" viewBox="0 0 800 800" role="img" aria-labelledby="cat-air-cooler">
  <title id="cat-air-cooler">Air Cooler</title>
  <defs>
    <linearGradient id="bg" x1="0" x2="1" y1="0" y2="1">
      <stop offset="0%" stop-color="hsl(290, 90%, 96%)"/>
      <stop offset="100%" stop-color="hsl(310, 70%, 84%)"/>
    </linearGradient>
  </defs>
  <rect width="800" height="800" rx="48" ry="48" fill="url(#bg)"/>
  <circle cx="145" cy="135" r="95" fill="white" opacity="0.55"/>
  <circle cx="655" cy="665" r="130" fill="white" opacity="0.25"/>
  <rect x="80" y="80" width="640" height="640" rx="40" ry="40" fill="rgba(255,255,255,0.45)" stroke="rgba(15,23,42,0.08)" stroke-width="4"/>
  
        <rect x="310" y="80" rx="38" ry="38" width="340" height="780" fill="url(#body)" stroke="#0f172a" stroke-width="8"/>
        <rect x="360" y="150" rx="22" ry="22" width="240" height="130" fill="rgba(255,255,255,0.18)"/>
        <g fill="rgba(255,255,255,0.64)">
          <rect x="370" y="340" rx="10" ry="10" width="220" height="20"/>
          <rect x="370" y="390" rx="10" ry="10" width="220" height="20"/>
          <rect x="370" y="440" rx="10" ry="10" width="220" height="20"/>
          <rect x="370" y="490" rx="10" ry="10" width="220" height="20"/>
          <rect x="370" y="540" rx="10" ry="10" width="220" height="20"/>
        </g>
        <circle cx="385" cy="780" r="20" fill="#1f2937"/>
        <circle cx="575" cy="780" r="20" fill="#1f2937"/>
        
        
        
      
  <text x="70" y="665" font-size="44" font-family="Arial, Helvetica, sans-serif" font-weight="700" fill="#0f172a">Air Cooler</text>
  <text x="70" y="710" font-size="24" font-family="Arial, Helvetica, sans-serif" fill="#475569">Dedicated category image</text>
</svg>