<?xml version="1.0" encoding="UTF-8"?>
<svg xmlns="http://www.w3.org/2000/svg" viewBox="0 0 960 960" role="img" aria-labelledby="lg-fridge-03-angle">
  <title id="lg-fridge-03-angle">LG 236 L Frost Free Double Door Refrigerator angle view</title>
  <defs>
    <linearGradient id="bg" x1="0" x2="1" y1="0" y2="1">
      <stop offset="0%" stop-color="#f8fafc"/>
      <stop offset="50%" stop-color="hsl(335, 70%, 97%)"/>
      <stop offset="100%" stop-color="#e2e8f0"/>
    </linearGradient>
    <linearGradient id="body" x1="0" x2="0.9" y1="0" y2="1">
      <stop offset="0%" stop-color="#ffffff"/>
      <stop offset="55%" stop-color="hsl(335, 22%, 92%)"/>
      <stop offset="100%" stop-color="hsl(335, 16%, 82%)"/>
    </linearGradient>
    <linearGradient id="drum" x1="0" x2="1" y1="0" y2="1">
      <stop offset="0%" stop-color="hsl(335, 88%, 68%)"/>
      <stop offset="100%" stop-color="#7d1735"/>
    </linearGradient>
    <linearGradient id="screen" x1="0" x2="1" y1="0" y2="1">
      <stop offset="0%" stop-color="#1d4ed8"/>
      <stop offset="100%" stop-color="#0f172a"/>
    </linearGradient>
  </defs>
  <rect width="960" height="960" fill="url(#bg)"/>
  <circle cx="130" cy="140" r="95" fill="#d61f45" opacity="0.12"/>
  <circle cx="845" cy="825" r="130" fill="#7d1735" opacity="0.1"/>
  <rect x="55" y="55" width="850" height="850" rx="48" ry="48" fill="rgba(255,255,255,0.5)" stroke="rgba(15,23,42,0.08)" stroke-width="4"/>
  
        <rect x="280" y="70" rx="34" ry="34" width="400" height="800" fill="url(#body)" stroke="#d61f45" stroke-width="8"/>
        <line x1="280" y1="390" x2="680" y2="390" stroke="rgba(255,255,255,0.5)" stroke-width="6"/>
        <rect x="620" y="180" rx="8" ry="8" width="14" height="120" fill="rgba(255,255,255,0.82)"/>
        <rect x="620" y="500" rx="8" ry="8" width="14" height="165" fill="rgba(255,255,255,0.82)"/>
        <path d="M680 80 L760 135 L760 840 L680 880 Z" fill="rgba(255,255,255,0.16)" stroke="#d61f45" stroke-width="8"/>
        
        
      
  <text x="95" y="110" font-size="28" font-family="Arial, Helvetica, sans-serif" font-weight="700" fill="#7d1735">LG</text>
  <text x="95" y="145" font-size="20" font-family="Arial, Helvetica, sans-serif" fill="#475569">REFRIGERATOR</text>
  <text x="95" y="780" font-size="36" font-family="Arial, Helvetica, sans-serif" font-weight="700" fill="#0f172a">LG 236 L Frost Free Double Door Refrigerator</text>
  <text x="95" y="825" font-size="24" font-family="Arial, Helvetica, sans-serif" fill="#475569">LG-RF-03</text>
  <text x="95" y="865" font-size="22" font-family="Arial, Helvetica, sans-serif" fill="#334155">236L • Double Door • Frost Free</text>
</svg>