<?xml version="1.0" encoding="UTF-8"?>
<svg xmlns="http://www.w3.org/2000/svg" viewBox="0 0 960 960" role="img" aria-labelledby="lg-air-cooler-07-angle">
  <title id="lg-air-cooler-07-angle">LG 85 L Jumbo Air Cooler angle view</title>
  <defs>
    <linearGradient id="bg" x1="0" x2="1" y1="0" y2="1">
      <stop offset="0%" stop-color="#f8fafc"/>
      <stop offset="50%" stop-color="hsl(143, 70%, 97%)"/>
      <stop offset="100%" stop-color="#e2e8f0"/>
    </linearGradient>
    <linearGradient id="body" x1="0" x2="0.9" y1="0" y2="1">
      <stop offset="0%" stop-color="#ffffff"/>
      <stop offset="55%" stop-color="hsl(143, 22%, 92%)"/>
      <stop offset="100%" stop-color="hsl(143, 16%, 82%)"/>
    </linearGradient>
    <linearGradient id="drum" x1="0" x2="1" y1="0" y2="1">
      <stop offset="0%" stop-color="hsl(143, 88%, 68%)"/>
      <stop offset="100%" stop-color="#7d1735"/>
    </linearGradient>
    <linearGradient id="screen" x1="0" x2="1" y1="0" y2="1">
      <stop offset="0%" stop-color="#1d4ed8"/>
      <stop offset="100%" stop-color="#0f172a"/>
    </linearGradient>
  </defs>
  <rect width="960" height="960" fill="url(#bg)"/>
  <circle cx="130" cy="140" r="95" fill="#d61f45" opacity="0.12"/>
  <circle cx="845" cy="825" r="130" fill="#7d1735" opacity="0.1"/>
  <rect x="55" y="55" width="850" height="850" rx="48" ry="48" fill="rgba(255,255,255,0.5)" stroke="rgba(15,23,42,0.08)" stroke-width="4"/>
  
        <rect x="310" y="80" rx="38" ry="38" width="340" height="780" fill="url(#body)" stroke="#d61f45" stroke-width="8"/>
        <rect x="360" y="150" rx="22" ry="22" width="240" height="130" fill="rgba(255,255,255,0.18)"/>
        <g fill="rgba(255,255,255,0.64)">
          <rect x="370" y="340" rx="10" ry="10" width="220" height="20"/>
          <rect x="370" y="390" rx="10" ry="10" width="220" height="20"/>
          <rect x="370" y="440" rx="10" ry="10" width="220" height="20"/>
          <rect x="370" y="490" rx="10" ry="10" width="220" height="20"/>
          <rect x="370" y="540" rx="10" ry="10" width="220" height="20"/>
        </g>
        <circle cx="385" cy="780" r="20" fill="#1f2937"/>
        <circle cx="575" cy="780" r="20" fill="#1f2937"/>
        <path d="M650 90 L720 145 L720 835 L650 870 Z" fill="rgba(255,255,255,0.18)" stroke="#d61f45" stroke-width="8"/>
        
        
      
  <text x="95" y="110" font-size="28" font-family="Arial, Helvetica, sans-serif" font-weight="700" fill="#7d1735">LG</text>
  <text x="95" y="145" font-size="20" font-family="Arial, Helvetica, sans-serif" fill="#475569">AIR COOLER</text>
  <text x="95" y="780" font-size="36" font-family="Arial, Helvetica, sans-serif" font-weight="700" fill="#0f172a">LG 85 L Jumbo Air Cooler</text>
  <text x="95" y="825" font-size="24" font-family="Arial, Helvetica, sans-serif" fill="#475569">LG-ACR-07</text>
  <text x="95" y="865" font-size="22" font-family="Arial, Helvetica, sans-serif" fill="#334155">85L • Jumbo • Motorized Louvre</text>
</svg>