<?xml version="1.0" encoding="UTF-8"?>
<svg xmlns="http://www.w3.org/2000/svg" viewBox="0 0 960 960" role="img" aria-labelledby="lg-ac-05-open">
  <title id="lg-ac-05-open">LG 1.5 Ton Wi-Fi Smart Split AC open view</title>
  <defs>
    <linearGradient id="bg" x1="0" x2="1" y1="0" y2="1">
      <stop offset="0%" stop-color="#f8fafc"/>
      <stop offset="50%" stop-color="hsl(226, 70%, 97%)"/>
      <stop offset="100%" stop-color="#e2e8f0"/>
    </linearGradient>
    <linearGradient id="body" x1="0" x2="0.9" y1="0" y2="1">
      <stop offset="0%" stop-color="#ffffff"/>
      <stop offset="55%" stop-color="hsl(226, 22%, 92%)"/>
      <stop offset="100%" stop-color="hsl(226, 16%, 82%)"/>
    </linearGradient>
    <linearGradient id="drum" x1="0" x2="1" y1="0" y2="1">
      <stop offset="0%" stop-color="hsl(226, 88%, 68%)"/>
      <stop offset="100%" stop-color="#7d1735"/>
    </linearGradient>
    <linearGradient id="screen" x1="0" x2="1" y1="0" y2="1">
      <stop offset="0%" stop-color="#1d4ed8"/>
      <stop offset="100%" stop-color="#0f172a"/>
    </linearGradient>
  </defs>
  <rect width="960" height="960" fill="url(#bg)"/>
  <circle cx="130" cy="140" r="95" fill="#d61f45" opacity="0.12"/>
  <circle cx="845" cy="825" r="130" fill="#7d1735" opacity="0.1"/>
  <rect x="55" y="55" width="850" height="850" rx="48" ry="48" fill="rgba(255,255,255,0.5)" stroke="rgba(15,23,42,0.08)" stroke-width="4"/>
  
        <rect x="80" y="120" rx="30" ry="30" width="800" height="170" fill="url(#body)" stroke="#d61f45" stroke-width="8"/>
        <rect x="120" y="160" rx="16" ry="16" width="720" height="34" fill="rgba(255,255,255,0.65)"/>
        <rect x="120" y="208" rx="12" ry="12" width="720" height="18" fill="rgba(255,255,255,0.28)"/>
        
        <path d="M120 246 C260 315, 700 315, 840 246" stroke="rgba(255,255,255,0.8)" stroke-width="12" fill="none" stroke-linecap="round"/>
        
      
  <text x="95" y="110" font-size="28" font-family="Arial, Helvetica, sans-serif" font-weight="700" fill="#7d1735">LG</text>
  <text x="95" y="145" font-size="20" font-family="Arial, Helvetica, sans-serif" fill="#475569">AIR CONDITIONER</text>
  <text x="95" y="780" font-size="36" font-family="Arial, Helvetica, sans-serif" font-weight="700" fill="#0f172a">LG 1.5 Ton Wi-Fi Smart Split AC</text>
  <text x="95" y="825" font-size="24" font-family="Arial, Helvetica, sans-serif" fill="#475569">LG-AC-05</text>
  <text x="95" y="865" font-size="22" font-family="Arial, Helvetica, sans-serif" fill="#334155">1.5 Ton • Wi-Fi • Voice Control</text>
</svg>