<?xml version="1.0" encoding="UTF-8"?>
<svg xmlns="http://www.w3.org/2000/svg" viewBox="0 0 960 960" role="img" aria-labelledby="samsung-microwave-05-front">
  <title id="samsung-microwave-05-front">Samsung 28 L Diet Fry Microwave front view</title>
  <defs>
    <linearGradient id="bg" x1="0" x2="1" y1="0" y2="1">
      <stop offset="0%" stop-color="#f8fafc"/>
      <stop offset="50%" stop-color="hsl(190, 70%, 97%)"/>
      <stop offset="100%" stop-color="#e2e8f0"/>
    </linearGradient>
    <linearGradient id="body" x1="0" x2="0.9" y1="0" y2="1">
      <stop offset="0%" stop-color="#ffffff"/>
      <stop offset="55%" stop-color="hsl(190, 22%, 92%)"/>
      <stop offset="100%" stop-color="hsl(190, 16%, 82%)"/>
    </linearGradient>
    <linearGradient id="drum" x1="0" x2="1" y1="0" y2="1">
      <stop offset="0%" stop-color="hsl(190, 88%, 68%)"/>
      <stop offset="100%" stop-color="#09348c"/>
    </linearGradient>
    <linearGradient id="screen" x1="0" x2="1" y1="0" y2="1">
      <stop offset="0%" stop-color="#1d4ed8"/>
      <stop offset="100%" stop-color="#0f172a"/>
    </linearGradient>
  </defs>
  <rect width="960" height="960" fill="url(#bg)"/>
  <circle cx="130" cy="140" r="95" fill="#0b5fff" opacity="0.12"/>
  <circle cx="845" cy="825" r="130" fill="#09348c" opacity="0.1"/>
  <rect x="55" y="55" width="850" height="850" rx="48" ry="48" fill="rgba(255,255,255,0.5)" stroke="rgba(15,23,42,0.08)" stroke-width="4"/>
  
        <rect x="120" y="180" rx="28" ry="28" width="760" height="470" fill="url(#body)" stroke="#0b5fff" stroke-width="8"/>
        <rect x="170" y="230" rx="22" ry="22" width="500" height="365" fill="#0f172a"/>
        <rect x="195" y="255" rx="12" ry="12" width="450" height="315" fill="url(#screen)" opacity="0.95"/>
        <rect x="705" y="235" rx="16" ry="16" width="120" height="140" fill="rgba(255,255,255,0.18)"/>
        <circle cx="765" cy="455" r="42" fill="rgba(255,255,255,0.82)"/>
        <circle cx="765" cy="555" r="28" fill="rgba(255,255,255,0.52)"/>
        
        
        
      
  <text x="95" y="110" font-size="28" font-family="Arial, Helvetica, sans-serif" font-weight="700" fill="#09348c">SAMSUNG</text>
  <text x="95" y="145" font-size="20" font-family="Arial, Helvetica, sans-serif" fill="#475569">MICROWAVE</text>
  <text x="95" y="780" font-size="36" font-family="Arial, Helvetica, sans-serif" font-weight="700" fill="#0f172a">Samsung 28 L Diet Fry Microwave</text>
  <text x="95" y="825" font-size="24" font-family="Arial, Helvetica, sans-serif" fill="#475569">SAM-MW-05</text>
  <text x="95" y="865" font-size="22" font-family="Arial, Helvetica, sans-serif" fill="#334155">28L • Convection • Diet Fry</text>
</svg>