<?xml version="1.0" encoding="UTF-8"?>
<svg xmlns="http://www.w3.org/2000/svg" viewBox="0 0 960 960" role="img" aria-labelledby="lg-washing-machine-04-detail">
  <title id="lg-washing-machine-04-detail">LG 9 kg AI Front Load Washer detail view</title>
  <defs>
    <linearGradient id="bg" x1="0" x2="1" y1="0" y2="1">
      <stop offset="0%" stop-color="#f8fafc"/>
      <stop offset="50%" stop-color="hsl(148, 70%, 97%)"/>
      <stop offset="100%" stop-color="#e2e8f0"/>
    </linearGradient>
    <linearGradient id="body" x1="0" x2="0.9" y1="0" y2="1">
      <stop offset="0%" stop-color="#ffffff"/>
      <stop offset="55%" stop-color="hsl(148, 22%, 92%)"/>
      <stop offset="100%" stop-color="hsl(148, 16%, 82%)"/>
    </linearGradient>
    <linearGradient id="drum" x1="0" x2="1" y1="0" y2="1">
      <stop offset="0%" stop-color="hsl(148, 88%, 68%)"/>
      <stop offset="100%" stop-color="#7d1735"/>
    </linearGradient>
    <linearGradient id="screen" x1="0" x2="1" y1="0" y2="1">
      <stop offset="0%" stop-color="#1d4ed8"/>
      <stop offset="100%" stop-color="#0f172a"/>
    </linearGradient>
  </defs>
  <rect width="960" height="960" fill="url(#bg)"/>
  <circle cx="130" cy="140" r="95" fill="#d61f45" opacity="0.12"/>
  <circle cx="845" cy="825" r="130" fill="#7d1735" opacity="0.1"/>
  <rect x="55" y="55" width="850" height="850" rx="48" ry="48" fill="rgba(255,255,255,0.5)" stroke="rgba(15,23,42,0.08)" stroke-width="4"/>
  
        <rect x="190" y="90" rx="42" ry="42" width="580" height="760" fill="url(#body)" stroke="#d61f45" stroke-width="8"/>
        <rect x="230" y="130" rx="22" ry="22" width="500" height="115" fill="rgba(255,255,255,0.18)"/>
        <circle cx="480" cy="510" r="210" fill="#0f172a" opacity="0.94"/>
        <circle cx="480" cy="510" r="165" fill="url(#drum)"/>
        <circle cx="480" cy="510" r="110" fill="rgba(255,255,255,0.18)"/>
        <circle cx="650" cy="183" r="24" fill="rgba(255,255,255,0.86)"/>
        
        
        <rect x="262" y="160" rx="16" ry="16" width="220" height="55" fill="rgba(255,255,255,0.78)"/><rect x="510" y="160" rx="12" ry="12" width="95" height="55" fill="#111827"/>
      
  <text x="95" y="110" font-size="28" font-family="Arial, Helvetica, sans-serif" font-weight="700" fill="#7d1735">LG</text>
  <text x="95" y="145" font-size="20" font-family="Arial, Helvetica, sans-serif" fill="#475569">WASHING MACHINE</text>
  <text x="95" y="780" font-size="36" font-family="Arial, Helvetica, sans-serif" font-weight="700" fill="#0f172a">LG 9 kg AI Front Load Washer</text>
  <text x="95" y="825" font-size="24" font-family="Arial, Helvetica, sans-serif" fill="#475569">LG-WM-04</text>
  <text x="95" y="865" font-size="22" font-family="Arial, Helvetica, sans-serif" fill="#334155">9 kg • AI Wash • Wi-Fi</text>
</svg>